<?xml version="1.0" encoding="UTF-8" standalone="no"?>
<!-- Created with Inkscape (http://www.inkscape.org/) -->

<svg
   width="79.375mm"
   height="79.375mm"
   viewBox="0 0 79.375 79.375"
   version="1.1"
   id="svg1"
   xml:space="preserve"
   inkscape:version="1.4.3 (0d15f75042, 2025-12-25)"
   sodipodi:docname="me.svg"
   inkscape:export-filename="me_eyes_closed.png"
   inkscape:export-xdpi="192"
   inkscape:export-ydpi="192"
   xmlns:inkscape="http://www.inkscape.org/namespaces/inkscape"
   xmlns:sodipodi="http://sodipodi.sourceforge.net/DTD/sodipodi-0.dtd"
   xmlns:xlink="http://www.w3.org/1999/xlink"
   xmlns="http://www.w3.org/2000/svg"
   xmlns:svg="http://www.w3.org/2000/svg"><sodipodi:namedview
     id="namedview1"
     pagecolor="#ffffff"
     bordercolor="#000000"
     borderopacity="0.25"
     inkscape:showpageshadow="2"
     inkscape:pageopacity="0.0"
     inkscape:pagecheckerboard="0"
     inkscape:deskcolor="#d1d1d1"
     inkscape:document-units="mm"
     inkscape:zoom="1.0449705"
     inkscape:cx="-145.45865"
     inkscape:cy="242.11209"
     inkscape:window-width="2556"
     inkscape:window-height="1387"
     inkscape:window-x="0"
     inkscape:window-y="0"
     inkscape:window-maximized="0"
     inkscape:current-layer="layer2" /><defs
     id="defs1"><rect
       x="347.01935"
       y="663.05695"
       width="81.461624"
       height="34.689972"
       id="rect1" /><linearGradient
       id="linearGradient32"
       inkscape:collect="always"><stop
         style="stop-color:#180d09;stop-opacity:1;"
         offset="0"
         id="stop32" /><stop
         style="stop-color:#140b08;stop-opacity:1;"
         offset="1"
         id="stop33" /></linearGradient><linearGradient
       inkscape:collect="always"
       xlink:href="#linearGradient32"
       id="linearGradient33"
       x1="94.979271"
       y1="146.60455"
       x2="117.33655"
       y2="146.60455"
       gradientUnits="userSpaceOnUse" /><clipPath
       clipPathUnits="userSpaceOnUse"
       id="clipPath15"><rect
         style="display:inline;opacity:1;fill:#d4515f;fill-opacity:1;stroke:none;stroke-width:0.646999;stroke-linecap:round;stroke-linejoin:round;stroke-dasharray:none;stroke-opacity:1"
         id="rect15"
         width="79.371483"
         height="79.334732"
         x="65.327278"
         y="107.80945"
         inkscape:label="BG Rect" /></clipPath><clipPath
       clipPathUnits="userSpaceOnUse"
       id="clipPath16"><rect
         style="display:inline;opacity:1;fill:#d4515f;fill-opacity:1;stroke:none;stroke-width:0.646999;stroke-linecap:round;stroke-linejoin:round;stroke-dasharray:none;stroke-opacity:1"
         id="rect17"
         width="79.371483"
         height="79.334732"
         x="65.327278"
         y="107.80945"
         inkscape:label="BG Rect" /></clipPath><rect
       x="347.01935"
       y="663.05695"
       width="81.461624"
       height="34.689972"
       id="rect2" /><rect
       x="347.01935"
       y="663.05695"
       width="81.461624"
       height="34.689972"
       id="rect9" /><rect
       x="347.01935"
       y="663.05695"
       width="81.461624"
       height="34.689972"
       id="rect10" /><clipPath
       clipPathUnits="userSpaceOnUse"
       id="clipPath13"><rect
         style="display:inline;opacity:1;fill:#d4515f;fill-opacity:1;stroke:none;stroke-width:0.818363;stroke-linecap:round;stroke-linejoin:round;stroke-dasharray:none;stroke-opacity:1"
         id="rect13"
         width="100.02093"
         height="100.7214"
         x="214.65315"
         y="608.02032"
         inkscape:label="BG Rect"
         sodipodi:insensitive="true"
         transform="matrix(0.99238299,-0.12319093,0.13304471,0.99111004,0,0)" /></clipPath><clipPath
       clipPathUnits="userSpaceOnUse"
       id="clipPath14"><rect
         style="display:inline;opacity:1;fill:#d4515f;fill-opacity:1;stroke:none;stroke-width:0.818363;stroke-linecap:round;stroke-linejoin:round;stroke-dasharray:none;stroke-opacity:1"
         id="rect16"
         width="100.02093"
         height="100.7214"
         x="214.65315"
         y="608.02032"
         inkscape:label="BG Rect"
         sodipodi:insensitive="true"
         transform="matrix(0.99238299,-0.12319093,0.13304471,0.99111004,0,0)" /></clipPath></defs><g
     inkscape:groupmode="layer"
     id="layer2"
     inkscape:label="Trace"
     style="display:inline;opacity:1"
     transform="translate(-65.325928,-107.79971)"><rect
       style="display:inline;opacity:1;fill:#d4515f;fill-opacity:1;stroke:none;stroke-width:0.647;stroke-linecap:round;stroke-linejoin:round;stroke-dasharray:none;stroke-opacity:1"
       id="rect12"
       width="79.371483"
       height="79.334732"
       x="65.327278"
       y="107.80945"
       inkscape:label="BG Rect"
       sodipodi:insensitive="true" /><g
       id="g25"
       inkscape:label="Hair"
       style="display:inline"
       sodipodi:insensitive="true"><path
         style="fill:#3f291e;fill-opacity:1;stroke:#000000;stroke-width:0.265;stroke-dasharray:none;stroke-opacity:1"
         d="m 92.163682,160.65345 c 0,0 -3.354859,-13.29284 -3.354859,-22.09143 0,-8.79859 2.468669,-18.92647 6.140024,-20.88875 3.671356,-1.96227 7.152813,-2.78516 10.570973,-2.72186 3.41816,0.0633 6.64642,0.25319 8.60869,1.07608 1.96228,0.82289 6.14003,3.35486 8.03901,9.49489 1.89897,6.14002 3.67135,17.34399 3.92455,19.87595 0.2532,2.53197 1.07609,12.72315 1.07609,12.72315 l -33.485296,8.1656 z"
         id="path20"
         inkscape:label="Hair - Dark" /><path
         style="fill:#583726;fill-opacity:1;stroke:none;stroke-width:0.264999;stroke-dasharray:none;stroke-opacity:1"
         d="m 93.815526,159.83552 c 0,0 -2.864596,-15.26293 -2.909356,-16.56095 -0.04476,-1.29802 -1.879891,-11.32411 0.08952,-14.99437 1.96941,-3.67026 4.341654,-6.84818 6.713898,-7.07197 2.372242,-0.2238 5.013042,0.13428 8.683302,2.1932 3.67027,2.05893 4.20738,39.8358 4.20738,39.8358 l -15.844798,-1.70086 z"
         id="path21"
         inkscape:label="Hair Highlight L" /><path
         style="fill:#573726;fill-opacity:1;stroke:none;stroke-width:0.264999;stroke-dasharray:none;stroke-opacity:1"
         d="m 122.05866,154.37488 c 0,0 -1.34278,-19.82838 -1.8799,-21.39495 -0.53711,-1.56658 -2.01416,-6.22155 -6.66914,-7.87764 -4.65496,-1.6561 -7.78811,-1.56658 -7.78811,-1.56658 l 1.65609,38.62729 14.36774,-4.38641 z"
         id="path22"
         inkscape:label="Hair Highlight R" /><path
         style="display:inline;opacity:1;fill:#3e291f;fill-opacity:1;stroke:none;stroke-width:0.3;stroke-linecap:round;stroke-linejoin:round;stroke-dasharray:none;stroke-opacity:1"
         d="m 120.55922,153.45732 c 0,0 -0.60425,-4.87877 -0.62663,-5.77396 -0.0224,-0.89518 0,-3.75978 -0.17904,-4.38641 -0.17904,-0.62663 -0.17904,-2.5289 -0.49235,-3.02125 -0.31332,-0.49236 -3.60313,0.33569 -3.60313,0.33569 l 3.13316,14.88248 z"
         id="path1"
         inkscape:label="Dark hair R 2" /></g><g
       id="g24"
       inkscape:label="Tshirt"
       style="display:inline"
       sodipodi:insensitive="true"><path
         style="display:inline;fill:#0a0b0d;fill-opacity:1;stroke:none;stroke-width:0.264999;stroke-dasharray:none;stroke-opacity:1"
         d="m 85.490295,187.1387 c 0,0 -0.04476,-4.02834 -0.04476,-4.61021 0,-0.58187 -1.029464,-6.84818 -1.029464,-8.54903 0,-1.70085 1.029464,-7.6986 1.029464,-8.10143 0,-0.40284 3.715023,-4.0731 6.266305,-5.10257 2.551279,-1.02946 6.132025,-3.53598 7.832878,-3.75978 1.700852,-0.22379 15.397202,0.17904 15.397202,0.17904 l 5.55016,-3.53599 c 0,0 8.54903,4.25214 13.24876,8.1462 4.69973,3.89406 8.95186,7.9224 9.48897,9.08614 0.53711,1.16374 2.59604,8.95186 2.59604,8.95186 l 0.53711,8.45951 -61.141222,0.26856 z"
         id="path23"
         inkscape:label="Tshirt - Black"
         clip-path="url(#clipPath15)" /><path
         style="display:inline;fill:#112732;fill-opacity:1;stroke:#000000;stroke-width:0.264999;stroke-dasharray:none;stroke-opacity:1"
         d="m 129.98497,186.64666 c 0,0 0.1899,-7.56426 2.81682,-11.17232 2.62692,-3.60805 4.71579,-5.41208 7.62756,-5.53868 2.91176,-0.1266 4.36764,2.91177 4.36764,2.91177 l 0.3798,14.49552 -15.38171,0.34815 z"
         id="path24"
         inkscape:label="Tshirt sleeve"
         clip-path="url(#clipPath16)" /></g><g
       id="g26"
       inkscape:label="Skintone"
       style="display:inline"
       sodipodi:insensitive="true"><path
         style="display:inline;fill:#ca9785;fill-opacity:1;stroke:none;stroke-width:0.264999;stroke-dasharray:none;stroke-opacity:1"
         d="m 120.52174,153.53229 c 0,0 -1.48753,6.89961 -2.91177,8.60869 -1.42423,1.70908 -3.8296,4.5892 -7.31106,4.7158 -3.48146,0.12659 -4.71579,-1.67743 -4.71579,-1.67743 l -2.69022,-9.08344 14.46388,-11.48881 c 0,0 0.22154,2.97506 1.04443,4.93733 0.82289,1.96228 2.12053,3.98786 2.12053,3.98786 z"
         id="path25"
         inkscape:label="Neck" /><path
         style="display:inline;fill:#ca9785;fill-opacity:1;stroke:#180d09;stroke-width:0;stroke-dasharray:none;stroke-opacity:1"
         d="m 114.31529,133.20373 c 0,0 -1.70085,-2.68556 -2.50652,-4.25214 -0.80566,-1.56658 -2.55128,-4.78925 -2.55128,-4.78925 0,0 -1.2085,-0.62663 -1.92465,-0.62663 -0.71615,0 -2.23797,0.40284 -2.23797,0.40284 0,0 -3.53598,1.70085 -4.69972,2.10368 -1.163746,0.40284 -5.46064,2.19321 -6.087272,3.17792 -0.626628,0.9847 -1.16374,3.93882 -1.253259,6.93769 -0.08952,2.99887 1.2085,10.16036 1.790372,11.27935 0.581871,1.11898 3.356948,3.53598 4.386413,3.93882 1.029466,0.40283 1.790376,0.26855 1.790376,0.26855 l 2.99883,-0.44759 c 0,0 0.85043,0.67139 4.11786,-1.79037 3.26743,-2.46177 5.72919,-5.63968 5.95299,-6.4901 0.22379,-0.85043 0.40283,-4.61021 0.13427,-6.17679 -0.26855,-1.56657 0.0895,-3.53598 0.0895,-3.53598 z"
         id="path26"
         inkscape:label="Face"
         sodipodi:nodetypes="cscscsssssccssscc" /><path
         style="display:inline;opacity:1;fill:#9c766a;fill-opacity:1;stroke:#180d09;stroke-width:0.264999;stroke-dasharray:none;stroke-opacity:1"
         d="m 115.93254,133.62468 c 0,0 -0.25319,2.97506 -0.12659,3.57641 0.12659,0.60134 0.72794,2.24712 0.75959,2.91176 0.0316,0.66464 0.0633,1.64578 0.0633,1.64578 0,0 2.24713,-0.56969 3.41816,-2.37372 1.17104,-1.80403 1.86733,-4.17775 0.85454,-5.38044 -1.01279,-1.20268 -1.70908,-1.17103 -2.56362,-1.13938 -0.85453,0.0316 -2.40537,0.75959 -2.40537,0.75959 z"
         id="path27"
         inkscape:label="Ear" /><path
         style="display:inline;opacity:1;fill:#ca9785;fill-opacity:1;stroke-width:0.646999;stroke-linecap:round;stroke-linejoin:round"
         d="m 94.569054,146.82257 c 0,0 2.278771,6.07673 3.513106,6.93127 1.234336,0.85453 7.15281,3.7663 8.19725,3.92455 1.04444,0.15825 10.47603,-6.74137 10.47603,-6.74137 l -2.65857,-7.91241 -12.02686,2.24713 z"
         id="path7"
         inkscape:label="Merger" /></g><g
       id="g30"
       inkscape:label="Face Highlights"
       style="display:inline;opacity:0.604"
       sodipodi:insensitive="true"><path
         style="fill:#9c766a;fill-opacity:1;stroke:none;stroke-width:0.264999;stroke-dasharray:none;stroke-opacity:1"
         d="m 111.72314,130.20652 -0.25319,2.69022 c 0,0 0.82289,0.0317 1.17103,-0.0316 0.34815,-0.0633 0.60135,-0.1899 0.60135,-0.1899 0,0 -0.53805,-0.88619 -0.72795,-1.23434 -0.18989,-0.34814 -0.79124,-1.23433 -0.79124,-1.23433 z"
         id="path28" /><path
         style="fill:#9c766a;fill-opacity:1;stroke:none;stroke-width:0.264999;stroke-dasharray:none;stroke-opacity:1"
         d="m 113.65377,134.76406 c 0,0 0.0316,1.74073 0.1266,2.08888 0.0949,0.34815 0.50639,1.89898 0.47474,2.78517 -0.0316,0.88618 -0.82289,4.0828 -1.55083,5.03228 -0.72794,0.94949 -3.13331,3.16497 -3.13331,3.16497 0,0 -0.3798,-3.9562 -0.34815,-4.4626 0.0316,-0.50639 0.5697,-5.31713 0.66465,-5.79188 0.095,-0.47474 0.1899,-1.86733 0.41144,-2.12052 0.22155,-0.2532 1.29764,-0.4431 1.67743,-0.5064 0.3798,-0.0633 1.67743,-0.1899 1.67743,-0.1899 z"
         id="path29" /><path
         style="fill:#9c766a;fill-opacity:1;stroke:none;stroke-width:0.264999;stroke-dasharray:none;stroke-opacity:1"
         d="m 102.67135,143.02461 c 0,0 -2.31042,0.72794 -2.690212,0.75959 -0.379796,0.0317 -0.88619,-0.0949 -0.88619,-0.0949 0,0 -0.09495,-1.01279 -0.09495,-1.26599 0,-0.2532 0.443095,-1.48753 0.664641,-1.80403 0.221549,-0.31649 0.506391,-1.55083 0.506391,-2.12052 0,-0.56969 0.0949,-1.10774 0.34815,-1.10774 0.2532,0 0.5064,0.28485 0.53804,0.6963 0.0316,0.41144 0.15825,1.17103 0.3798,1.39258 0.22155,0.22155 0.63299,0.91784 0.82289,1.17103 0.1899,0.2532 0.3165,1.10774 0.3165,1.39259 0,0.28484 0.0949,0.98113 0.0949,0.98113 z"
         id="path30" /><path
         style="fill:#9c766a;fill-opacity:1;stroke:none;stroke-width:0.264999;stroke-dasharray:none;stroke-opacity:1"
         d="m 116.64278,146.07203 0.53711,2.12607 c 0,0 -2.01417,3.8493 -2.59604,4.56545 -0.58187,0.71615 -4.05072,3.91644 -5.08018,4.14023 -1.02947,0.2238 -3.98358,0.42522 -4.49831,0.29094 -0.51474,-0.13428 -1.45468,-0.58187 -1.45468,-0.58187 l 10.2275,-7.47481 z"
         id="path31"
         inkscape:label="neck" /></g><path
       style="display:inline;fill:#3e291e;fill-opacity:1;stroke:url(#linearGradient33);stroke-width:0.3;stroke-dasharray:none;stroke-opacity:1"
       d="m 117.33655,144.46069 c 0,0 -2.3481,4.87144 -3.53598,6.33345 -1.16375,1.4323 -5.19209,4.56545 -6.33345,5.08018 -1.14136,0.51473 -3.87168,0.89518 -5.37112,0.80567 -1.49944,-0.0895 -4.005958,-1.29802 -4.722109,-2.10369 -0.716147,-0.80567 -1.611333,-2.10369 -1.947029,-2.70794 -0.335695,-0.60425 -0.500526,-1.39064 -0.550686,-2.06164 -0.05019,-0.67139 -0.276702,-2.75616 -0.276702,-2.75616 0,0 1.983126,2.87481 2.9763,3.52362 0.984175,0.64294 2.984916,1.74613 3.683566,1.03567 l 0.0556,-1.72708 c 0,0 0.70463,0.071 1.01795,0.0262 0.31331,-0.0448 0.9994,-0.3341 0.9994,-0.3341 l 0.0617,1.64458 c 0.542,0.1435 1.04986,0.43286 1.62716,0.16817 0.51021,-0.23392 1.32536,-0.43607 3.54095,-2.13692 2.21558,-1.70086 4.30059,-3.95399 4.9269,-5.00603 0.97478,-1.63736 1.06777,-2.61738 1.10044,-4.51525 0.0216,-1.25563 -0.26856,-3.1899 -0.26856,-3.1899 l 1.18051,-0.0235 c 0,0 0.46229,1.51797 0.50705,2.07746 0.0448,0.5595 0.36191,0.99126 0.36191,1.46123 0,0.46997 0.071,1.54149 0.071,1.7429 0,0.20142 0.89519,2.66318 0.89519,2.66318 z"
       id="path32"
       inkscape:label="Beard"
       sodipodi:nodetypes="csssssscsccsccsssscccsscc"
       sodipodi:insensitive="true" /><g
       id="g2"
       inkscape:label="eyes"
       style="display:inline"><ellipse
         style="display:inline;fill:#624444;fill-opacity:1;stroke:#371f1b;stroke-width:0.28043;stroke-linecap:round;stroke-linejoin:round;stroke-dasharray:none;stroke-opacity:1"
         id="path2"
         cx="105.82049"
         cy="137.30397"
         rx="1.1589959"
         ry="1.5467036" /><ellipse
         style="display:inline;fill:#5e413e;fill-opacity:1;stroke:#4e3536;stroke-width:0.239;stroke-linecap:round;stroke-linejoin:round;stroke-dasharray:none;stroke-opacity:1"
         id="ellipse2"
         cx="95.660957"
         cy="138.75194"
         rx="0.89509892"
         ry="1.4489671"
         inkscape:label="L" /></g><g
       id="g10"
       inkscape:label="Eyes_closed"
       style="display:none;opacity:1"><path
         style="fill:none;fill-opacity:1;stroke:#4e3536;stroke-width:0.239;stroke-linecap:round;stroke-linejoin:round;stroke-dasharray:none;stroke-opacity:1"
         d="m 94.755474,138.75388 c 0,0 0.06714,1.4323 0.850426,1.4323 0.783289,0 0.984705,-1.47706 0.984705,-1.47706"
         id="path10"
         inkscape:label="L" /><path
         style="fill:none;fill-opacity:1;stroke:#371f1b;stroke-width:0.239;stroke-linecap:round;stroke-linejoin:round;stroke-dasharray:none;stroke-opacity:1"
         d="m 104.63609,137.39991 c 0,0 0.24618,1.46587 1.13018,1.46587 0.88399,0 1.21968,-1.18612 1.27564,-1.5442"
         id="path11"
         inkscape:label="R" /></g><g
       id="g4"
       inkscape:label="Lips"
       sodipodi:insensitive="true"><path
         style="display:inline;opacity:1;fill:#ae8375;fill-opacity:1;stroke-width:0.646999;stroke-linecap:round;stroke-linejoin:round"
         d="m 98.746804,148.1202 c 0,0 0.664641,0.69629 0.981135,0.85454 0.316501,0.15825 4.114451,-0.31649 4.462601,-0.50639 0.34814,-0.1899 1.13938,-1.17104 1.13938,-1.32928 0,-0.15825 -4.65249,0.28484 -4.65249,0.28484 z"
         id="path8"
         inkscape:label="inside" /><path
         style="display:inline;fill:#bb7a7b;fill-opacity:1;stroke:none;stroke-width:0.287999;stroke-linecap:round;stroke-linejoin:round;stroke-dasharray:none;stroke-opacity:1"
         d="m 98.727862,148.36594 c 0,0 2.719128,-0.27974 3.088388,-0.36926 0.36927,-0.0895 3.75979,-0.82805 3.84931,-0.90638 0.0895,-0.0783 -1.36516,1.95822 -2.15964,2.18202 -0.79448,0.2238 -2.11488,0.57068 -3.01006,0.27975 -0.895191,-0.29094 -1.767998,-1.18613 -1.767998,-1.18613 z"
         id="path3"
         sodipodi:nodetypes="cssssc"
         inkscape:label="bottom lip" /><path
         style="fill:#a6686c;fill-opacity:1;stroke:none;stroke-width:0.287999;stroke-linecap:round;stroke-linejoin:round;stroke-dasharray:none;stroke-opacity:1"
         d="m 97.731969,147.88478 c 0,0 1.555384,-1.05184 2.540091,-1.24207 0.9847,-0.19023 1.58896,-0.44759 3.06601,-0.26855 1.47706,0.17903 2.84222,0.5371 2.84222,0.5371 0,0 -1.04066,0.45879 -1.61134,0.53712 -0.57068,0.0783 -2.68884,0.51358 -2.97368,0.54523 -0.28485,0.0317 -1.962279,0.44309 -2.785168,0.37979 -0.822891,-0.0633 -1.078133,-0.48862 -1.078133,-0.48862 z"
         id="path4"
         inkscape:label="upper lip"
         sodipodi:nodetypes="csscscsc" /></g><g
       id="g6"
       inkscape:label="Eyebrows"
       style="display:inline"
       sodipodi:insensitive="true"><path
         style="display:inline;fill:none;fill-opacity:1;stroke:#100300;stroke-width:0.5;stroke-linecap:round;stroke-linejoin:round;stroke-dasharray:none;stroke-opacity:1"
         d="m 103.6402,134.05415 c 0,0 0.82804,-0.85042 2.37224,-0.7609 1.5442,0.0895 2.08131,0.20141 2.55128,0.46997"
         id="path5" /><path
         style="fill:none;fill-opacity:1;stroke:#100300;stroke-width:0.5;stroke-linecap:round;stroke-linejoin:round;stroke-dasharray:none;stroke-opacity:1"
         d="m 97.46341,135.08362 c 0,0 -1.16374,-0.46998 -1.969407,-0.31332 -0.80567,0.15666 -2.215587,0.98471 -2.215587,0.98471"
         id="path6" /></g><path
       id="path9"
       style="display:inline;opacity:1;fill:#130e0e;fill-opacity:1;stroke:none;stroke-width:0.499999;stroke-linecap:round;stroke-linejoin:round;stroke-dasharray:none;stroke-opacity:1"
       d="m 116.10557,132.93504 -6.6244,0.91777 c 0,0 -0.42498,0.0222 -1.05161,0.0222 -0.62663,0 -2.46172,0.24642 -3.3569,0.40308 -0.89519,0.15666 -2.19332,0.51457 -2.75281,0.89503 -0.55949,0.38045 -1.43239,0.69366 -2.17092,0.73846 -0.738534,0.0447 -1.946976,-0.35812 -2.193152,-0.35812 -0.246176,0 -1.118797,-0.0444 -1.409733,-0.0444 -0.290936,0 -1.969389,0.11162 -1.969389,0.11162 0,0 -1.812777,0.20151 -2.327506,0.4253 -0.514734,0.2238 -0.492314,1.32049 -0.223759,1.36529 0.268555,0.0448 0.738495,1.23085 0.805635,1.67845 0.06714,0.44759 0.178606,1.61099 0.42478,2.01383 0.246177,0.40283 0.917917,1.34307 2.864942,1.34307 1.947028,0 2.752649,-1.27562 3.065963,-1.96939 0.313315,-0.69377 0.559337,-1.92479 0.604097,-2.52904 0.04476,-0.60425 0.693622,-1.1188 0.895032,-1.1188 0.20142,0 0.6942,0.22361 0.6718,0.53692 -0.0224,0.31332 0.15635,1.34292 0.62632,2.23811 0.46998,0.89518 2.1709,1.49929 3.2675,1.54409 1.0966,0.0448 2.59607,-0.4701 3.20032,-1.07435 0.60425,-0.60425 0.80545,-2.10332 0.82785,-2.81947 0.0224,-0.71615 0.47026,-2.52904 0.47026,-2.52904 l 6.04253,-0.73846 0.0672,-0.47026 0.33538,-0.11162 z m -10.08413,1.80557 c 0.26007,0.003 0.46095,0.0295 0.46095,0.0295 0,0 1.16372,-0.13389 1.67845,0.38085 0.51473,0.51473 0.5593,1.34271 0.53692,1.90221 -0.0224,0.55949 -0.31332,1.70071 -0.58188,2.05879 -0.26856,0.35807 -1.52158,1.32048 -2.73006,1.29811 -1.2085,-0.0224 -1.90202,-0.44744 -2.43913,-1.18597 -0.53711,-0.73852 -0.60462,-1.4099 -0.60462,-1.96939 0,-0.55949 0.15671,-1.36518 0.94,-1.74563 0.78329,-0.38045 1.79051,-0.67183 2.2381,-0.73897 0.16785,-0.0252 0.34522,-0.0314 0.50127,-0.0295 z m -9.097124,1.56683 c 0.439551,0.004 1.065194,0.0463 1.300179,0.16382 l 0.290939,0.2682 c 0.313313,0.35808 0.469739,0.78334 0.469739,1.52187 0,0.73853 -0.246105,1.83551 -0.738457,2.35024 -0.492352,0.51473 -1.096546,1.16341 -2.193147,1.14102 -1.096601,-0.0224 -1.566874,-0.33547 -1.924948,-0.76068 -0.358073,-0.42522 -0.55918,-1.45494 -0.626318,-2.14871 -0.06714,-0.69376 -0.24617,-1.54421 0.581877,-2.03656 0.828047,-0.49235 2.148391,-0.46958 2.484086,-0.49196 0.08392,-0.006 0.209534,-0.009 0.35605,-0.007 z"
       inkscape:label="Glasses"
       sodipodi:insensitive="true" /><rect
       style="display:none;opacity:1;fill:#d4515f;fill-opacity:1;stroke:none;stroke-width:0.647;stroke-linecap:round;stroke-linejoin:round;stroke-dasharray:none;stroke-opacity:1"
       id="rect3"
       width="79.371483"
       height="79.334732"
       x="65.327278"
       y="107.80945"
       inkscape:label="BG Rect"
       sodipodi:insensitive="true" /><g
       id="g3"
       inkscape:label="hello world"
       style="display:inline"><text
         xml:space="preserve"
         transform="matrix(0.74809523,0.09703799,-0.10042287,0.78170406,-95.378157,-380.25368)"
         id="text1"
         style="letter-spacing:0.298667px;white-space:pre;shape-inside:url(#rect1);display:inline;fill:#647474;fill-opacity:1;stroke-width:2.44535;stroke-linecap:round;stroke-linejoin:round"><tspan
           x="347.01953"
           y="673.97514"
           id="tspan6"><tspan
             style="font-family:Comfortaa;-inkscape-font-specification:Comfortaa"
             id="tspan5">hello</tspan></tspan></text><text
         xml:space="preserve"
         transform="matrix(0.78653294,0.09703799,-0.10558267,0.78170406,-105.01046,-371.10694)"
         id="text2"
         style="letter-spacing:0.298667px;white-space:pre;shape-inside:url(#rect2);display:inline;fill:#647474;fill-opacity:1;stroke-width:2.44535;stroke-linecap:round;stroke-linejoin:round"
         clip-path="url(#clipPath14)"><tspan
           x="347.01953"
           y="673.97514"
           id="tspan8"><tspan
             style="font-family:Comfortaa;-inkscape-font-specification:Comfortaa"
             id="tspan7">world</tspan></tspan></text></g></g></svg>
